<svg xmlns="http://www.w3.org/2000/svg" xmlns:se="http://svg-edit.googlecode.com" xmlns:xlink="http://www.w3.org/1999/xlink" xmlns:dc="http://purl.org/dc/elements/1.1/" xmlns:cc="http://creativecommons.org/ns#" xmlns:rdf="http://www.w3.org/1999/02/22-rdf-syntax-ns#" xmlns:inkscape="http://www.inkscape.org/namespaces/inkscape" width="777" height="480">                                    <title>my vector image</title>                                    <!-- Created with Vector Paint - http://www.vectorpaint.yaks.com/ https://chrome.google.com/webstore/detail/hnbpdiengicdefcjecjbnjnoifekhgdo -->                                    <rect id="backgroundrect" width="100%" height="100%" x="0" y="0" fill="#FFFFFF" stroke="none"/>                                <g class="currentLayer" style=""><title>Layer 1</title><path fill="#484848" fill-opacity="1" stroke="#ffffff" stroke-opacity="1" stroke-width="2" stroke-dasharray="none" stroke-linejoin="round" stroke-linecap="butt" stroke-dashoffset="" fill-rule="nonzero" opacity="1" marker-start="" marker-mid="" marker-end="" d="M198.8860740661621,248.20253372192383 C198.8860740661621,148.75501990976915 279.4385602540074,68.20253372192383 378.8860740661621,68.20253372192383 C478.33358787831685,68.20253372192383 558.8860740661621,148.75501990976915 558.8860740661621,248.20253372192383 C558.8860740661621,347.6500475340785 478.33358787831685,428.2025337219238 378.8860740661621,428.2025337219238 C279.4385602540074,428.2025337219238 198.8860740661621,347.6500475340785 198.8860740661621,248.20253372192383 z" id="svg_5" class=""/><path fill="#e84141" fill-opacity="1" stroke="#e76767" stroke-opacity="1" stroke-width="20" stroke-dasharray="none" stroke-linejoin="round" stroke-linecap="butt" stroke-dashoffset="" fill-rule="nonzero" opacity="1" marker-start="" marker-mid="" marker-end="" d="M277.6810125075449,320.1519235589256L380.8455729138373,146.7341962501886" id="svg_1" class=""/><path fill="#e84141" fill-opacity="1" stroke="#e76767" stroke-opacity="1" stroke-width="20" stroke-dasharray="none" stroke-linejoin="round" stroke-linecap="butt" stroke-dashoffset="" fill-rule="nonzero" opacity="1" marker-start="" marker-mid="" marker-end="" d="M381.2253192626108,321.7974916913261 L484.38987966890323,148.37976438258912 " class="" id="svg_2" transform="rotate(120.93519592285156 432.8075866699219,235.08862304687497) "/><path fill="#e84141" fill-opacity="1" stroke="#e76767" stroke-opacity="1" stroke-width="20" stroke-dasharray="none" stroke-linejoin="round" stroke-linecap="butt" stroke-dashoffset="" fill-rule="nonzero" opacity="1" marker-start="" marker-mid="" marker-end="" d="M327.8075946532358,411.4177469231834 L430.97215505952823,238.00001961444642 " class="" id="svg_3" transform="rotate(59.62489700317383 379.38989257812506,324.70886230468756) "/><path fill="#e84141" fill-opacity="1" stroke="#e76767" stroke-opacity="1" stroke-width="20" stroke-dasharray="none" stroke-linejoin="round" stroke-linecap="butt" stroke-dashoffset="" fill-rule="nonzero" opacity="0" marker-start="" marker-mid="" marker-end="" d="M102,132 C102,119.84530386740332 112.74033149171271,110 126,110 C139.2596685082873,110 150,119.84530386740332 150,132 C150,144.15469613259668 139.2596685082873,154 126,154 C112.74033149171271,154 102,144.15469613259668 102,132 Z" id="svg_7"/><path fill="#e76767" fill-opacity="1" stroke="#e76767" stroke-opacity="1" stroke-width="0" stroke-dasharray="none" stroke-linejoin="round" stroke-linecap="butt" stroke-dashoffset="" fill-rule="nonzero" opacity="1" marker-start="" marker-mid="" marker-end="" d="M369.5069299473445,149.75003832099776 C369.5069299473445,142.31903060518312 375.5260464707087,136.29991435537326 382.95705452424494,136.29991435537326 C390.38806257778106,136.29991435537326 396.4071791011453,142.31903060518312 396.4071791011453,149.75003832099776 C396.4071791011453,157.18104603681246 390.38806257778106,163.2001622866223 382.95705452424494,163.2001622866223 C375.5260464707087,163.2001622866223 369.5069299473445,157.18104603681246 369.5069299473445,149.75003832099776 z" class="" id="svg_11"/><path fill="#e76767" fill-opacity="1" stroke="#e76767" stroke-opacity="1" stroke-width="0" stroke-dasharray="none" stroke-linejoin="round" stroke-linecap="butt" stroke-dashoffset="" fill-rule="nonzero" opacity="1" marker-start="" marker-mid="" marker-end="" d="M468.84083590420863,324.5287329723122 C468.84083590420863,318.455790728419 473.75991834672664,313.5367075108655 479.8328596337858,313.5367075108655 C485.90580092084497,313.5367075108655 490.824883363363,318.455790728419 490.824883363363,324.5287329723122 C490.824883363363,330.60167521620554 485.90580092084497,335.52075843375906 479.8328596337858,335.52075843375906 C473.75991834672664,335.52075843375906 468.84083590420863,330.60167521620554 468.84083590420863,324.5287329723122 z" class="" id="svg_8"/><path fill="#e76767" fill-opacity="1" stroke="#e76767" stroke-opacity="1" stroke-width="0" stroke-dasharray="none" stroke-linejoin="round" stroke-linecap="butt" stroke-dashoffset="" fill-rule="nonzero" opacity="1" marker-start="" marker-mid="" marker-end="" d="M266.33168728115294,322.3237847865832 C266.33168728115294,315.8897433032325 271.408670528784,310.67816970171845 277.67655108141514,310.67816970171845 C283.94443163404617,310.67816970171845 289.0214148816773,315.8897433032325 289.0214148816773,322.3237847865832 C289.0214148816773,328.7578262699338 283.94443163404617,333.9693998714478 277.67655108141514,333.9693998714478 C271.408670528784,333.9693998714478 266.33168728115294,328.7578262699338 266.33168728115294,322.3237847865832 z" class="" id="svg_6"/></g></svg>