<svg xmlns="http://www.w3.org/2000/svg" xmlns:se="http://svg-edit.googlecode.com" xmlns:xlink="http://www.w3.org/1999/xlink" xmlns:dc="http://purl.org/dc/elements/1.1/" xmlns:cc="http://creativecommons.org/ns#" xmlns:rdf="http://www.w3.org/1999/02/22-rdf-syntax-ns#" xmlns:inkscape="http://www.inkscape.org/namespaces/inkscape" width="777" height="480">                                    <title>my vector image</title>                                    <!-- Created with Vector Paint - http://www.vectorpaint.yaks.com/ https://chrome.google.com/webstore/detail/hnbpdiengicdefcjecjbnjnoifekhgdo -->                                                                    <g class="currentLayer" style=""><title>Layer 1</title><path fill="#484848" fill-opacity="1" stroke="#ffffff" stroke-opacity="1" stroke-width="0" stroke-dasharray="none" stroke-linejoin="round" stroke-linecap="butt" stroke-dashoffset="" fill-rule="nonzero" opacity="1" marker-start="" marker-mid="" marker-end="" d="M197.3860740661621,251.70253372192383 C197.3860740661621,152.25501990976915 277.9385602540074,71.70253372192383 377.3860740661621,71.70253372192383 C476.83358787831685,71.70253372192383 557.3860740661621,152.25501990976915 557.3860740661621,251.70253372192383 C557.3860740661621,351.1500475340785 476.83358787831685,431.7025337219238 377.3860740661621,431.7025337219238 C277.9385602540074,431.7025337219238 197.3860740661621,351.1500475340785 197.3860740661621,251.70253372192383 z" id="svg_5" class=""/><path fill="#e84141" fill-opacity="1" stroke="#e76767" stroke-opacity="1" stroke-width="20" stroke-dasharray="none" stroke-linejoin="round" stroke-linecap="butt" stroke-dashoffset="" fill-rule="nonzero" opacity="0" marker-start="" marker-mid="" marker-end="" d="M102,132 C102,119.84530386740332 112.74033149171271,110 126,110 C139.2596685082873,110 150,119.84530386740332 150,132 C150,144.15469613259668 139.2596685082873,154 126,154 C112.74033149171271,154 102,144.15469613259668 102,132 Z" id="svg_7"/><path fill="#e76767" fill-opacity="1" stroke="#e76767" stroke-opacity="1" stroke-width="0" stroke-dasharray="none" stroke-linejoin="round" stroke-linecap="butt" stroke-dashoffset="" fill-rule="nonzero" opacity="1" marker-start="" marker-mid="" marker-end="" id="svg_4" d="M253.09996718317294,243.9999935030938 " style="color: rgb(0, 0, 0);"/><path fill="#484848" fill-opacity="1" stroke="#ffffff" stroke-opacity="1" stroke-width="2" stroke-dasharray="none" stroke-linejoin="round" stroke-linecap="butt" stroke-dashoffset="" fill-rule="nonzero" opacity="1" marker-start="" marker-mid="" marker-end="" id="svg_9" d="M156.59996862113496,181.9999944269658 " style="color: rgb(0, 0, 0);"/><path fill="#484848" fill-opacity="1" stroke="#ffffff" stroke-opacity="1" stroke-width="2" stroke-dasharray="none" stroke-linejoin="round" stroke-linecap="butt" stroke-dashoffset="" fill-rule="nonzero" opacity="1" marker-start="" marker-mid="" marker-end="" id="svg_10" d="M 158.09996859878322 196.99999420344838 C 158.09996859878322 305.4999925866724 157.5999686062338 303.49999261647474 158.09996859878322 309.9999925196172" style="color: rgb(0, 0, 0);"/><path fill="#67e767" fill-opacity="1" stroke="#e84141" stroke-opacity="1" stroke-width="0" stroke-dasharray="none" stroke-linejoin="round" stroke-linecap="butt" stroke-dashoffset="" fill-rule="nonzero" opacity="1" marker-start="" marker-mid="" marker-end="" id="svg_1" d="M173.09189960644827,276.1080909760181 " style="color: rgb(0, 0, 0);"/><path fill="#d50bd5" stroke="#e84141" stroke-width="0" stroke-linejoin="round" stroke-dashoffset="" fill-rule="nonzero" marker-start="" marker-mid="" marker-end="" id="svg_6" d="M380.38079382352606,133.63041907698542 C412.8284729424164,133.63041907698542 439.15188792610957,159.97917968884838 439.15188792610957,192.42685880772606 C439.15188792610957,224.87455376760988 412.8284729424164,251.19796083079973 380.38079382352606,251.19796083079973 C347.93309886364113,251.19796083079973 321.6096838799474,277.54674520419337 321.6096838799474,309.994416402554 C321.6096838799474,342.4421034419414 347.93309886364113,368.765518425641 380.38079382352606,368.765518425641 C445.27615206126865,368.765518425641 497.9483197363264,316.09331114803086 497.9483197363264,251.1979529102897 C497.9483197363264,186.3025867520444 445.27615206126865,133.6304111564744 380.38079382352606,133.6304111564744 L380.38079382352606,133.63041907698542 zM380.38079382352606,174.05297337198527 C370.23567547364615,174.05297337198527 362.00689254678065,182.2817246168162 362.00689254678065,192.42685880772606 C362.00689254678065,202.57200883964313 370.23565171211976,210.8007442434524 380.38079382352606,210.8007442434524 C390.5259280144305,210.8007442434524 398.7546713387611,202.57199299862214 398.7546713387611,192.42685880772606 C398.7546713387611,182.2817246168162 390.5259280144305,174.05297337198527 380.38079382352606,174.05297337198527 zM380.38079382352606,291.62053888733766 C390.52067671710483,291.62053888733766 398.7546713387611,299.8545176679746 398.7546713387611,309.99442432306444 C398.7546713387611,320.1343072166309 390.5206846376087,328.36832559980553 380.38079382352606,328.36832559980553 C370.24089508894053,328.36832559980553 362.00689254678065,320.1343151371396 362.00689254678065,309.99442432306444 C362.00689254678065,299.85454142950533 370.24089508894053,291.62053888733766 380.38079382352606,291.62053888733766 zM495.3113605813221,251.27287300306784 C495.3113605813221,316.12001910371055 442.74238129495717,368.68902215161154 377.8951955917755,368.68902215161154 C313.04804157061017,368.68902215161154 260.4790306022047,316.12001910371055 260.4790306022047,251.27287300306784 C260.4790306022047,186.4257031408888 313.04804157061017,133.85668425197306 377.8951955917755,133.85668425197306 C442.74238129495717,133.85668425197306 495.3113605813221,186.4257031408888 495.3113605813221,251.27287300306784 z" style="color: rgb(71, 101, 247);" class="selected"/></g></svg>